<svg data-v-423bf9ae="" xmlns="http://www.w3.org/2000/svg" viewBox="0 0 446 112" class="iconLeft">
  <!---->
  <!---->
  <!---->
  <g data-v-423bf9ae="" id="c8eea517-db8c-41e7-bffe-8c425dbb3891" fill="#012B3D"
    transform="matrix(5.714285850524902,0,0,5.714285850524902,124.31110382080078,11.555557250976562)">
    <path
      d="M1.96 7.64L5.67 7.64L5.67 6.92L1.96 6.92L1.96 3.53L5.81 3.53L5.81 2.80L1.19 2.80L1.19 12.60L1.96 12.60ZM7.70 2.80L7.70 12.60L8.47 12.60L8.47 2.80ZM18.13 2.80L18.13 10.91L10.71 2.45L10.71 12.60L11.48 12.60L11.48 4.49L18.90 12.95L18.90 2.80ZM21.21 2.80L21.21 12.60L23.73 12.60C25.16 12.60 26.32 12.15 27.22 11.24C28.11 10.34 28.56 9.16 28.56 7.70C28.56 6.24 28.11 5.06 27.22 4.16C26.32 3.25 25.16 2.80 23.73 2.80ZM21.98 3.53L23.73 3.53C24.92 3.53 25.88 3.91 26.63 4.68C27.39 5.45 27.76 6.46 27.76 7.70C27.76 8.94 27.39 9.95 26.63 10.72C25.88 11.49 24.92 11.87 23.73 11.87L21.98 11.87ZM35.35 7.64L39.06 7.64L39.06 6.92L35.35 6.92L35.35 3.53L39.20 3.53L39.20 2.80L34.58 2.80L34.58 12.60L35.35 12.60ZM41.16 2.80L41.16 12.60L45.78 12.60L45.78 11.87L41.93 11.87L41.93 2.80ZM47.11 2.80L47.11 12.60L47.88 12.60L47.88 2.80ZM55.16 2.80L52.79 6.71L50.47 2.80L49.56 2.80L52.33 7.46L49.21 12.60L50.12 12.60L52.78 8.23L55.37 12.60L56.28 12.60L53.24 7.46L56.07 2.80Z">
    </path>
  </g>
  <defs data-v-423bf9ae="">
    <linearGradient data-v-423bf9ae="" gradientTransform="rotate(25)" id="678f069e-a6f4-41c3-84b2-fd4fd04d20c4" x1="0%"
      y1="0%" x2="100%" y2="0%">
      <stop data-v-423bf9ae="" offset="0%" style="stop-color: rgb(0, 118, 221); stop-opacity: 1;"></stop>
      <stop data-v-423bf9ae="" offset="100%" style="stop-color: rgb(0, 205, 233); stop-opacity: 1;"></stop>
    </linearGradient>
  </defs>
  <g data-v-423bf9ae="" id="d623d5dd-eabb-45e6-b6d9-f85fbea9ec8c"
    transform="matrix(1.1111111640930176,0,0,1.1111111640930176,0.4444417953491211,0.4444417953491211)" stroke="none"
    fill="url(#678f069e-a6f4-41c3-84b2-fd4fd04d20c4)">
    <path
      d="M87.427 25H75.086L87.5 12.549 75.232 0H57.837l12.464 12.451L57.531 25H42.773l12.684-12.451L42.92 0H25.244l12.451 12.451L24.927 25H12.402l12.695-12.451L12.549 0H0v100h100V0H87.744L100 12.5 87.427 25zm.073 62.365h-75v-12.5h75v12.5zm0-24.865h-75V50h75v12.5z">
    </path>
  </g>
  <!---->
</svg>